<svg xmlns="http://www.w3.org/2000/svg" width="17" height="17" viewBox="0 0 17 17" fill="none" aria-hidden="true" strokeColor="rgba(2, 6, 12, 0.92)" fillColor="rgba(2, 6, 12, 0.92)"><path d="M10.5164 3.43418C10.1934 3.13273 9.68714 3.15022 9.3857 3.47324C9.08425 3.79626 9.10174 4.30249 9.42476 4.60394L12.9012 7.84819C13.04 7.97772 13.1626 8.09234 13.2709 8.19527L2.89142 8.19527C2.44959 8.19527 2.09142 8.55344 2.09142 8.99527C2.09142 9.4371 2.44959 9.79527 2.89142 9.79527L13.3186 9.79527C13.1988 9.90964 13.0607 10.0388 12.9012 10.1877L9.46718 13.3924C9.14416 13.6939 9.12668 14.2001 9.42813 14.5231C9.72958 14.8462 10.2358 14.8636 10.5588 14.5622L14.0304 11.3224C14.4386 10.9415 14.8033 10.6012 15.0586 10.2874C15.3364 9.94598 15.5684 9.5378 15.5684 9.01793C15.5684 8.49807 15.3363 8.08989 15.0586 7.74849C14.8033 7.43463 14.4386 7.09437 14.0304 6.71354L10.5164 3.43418Z" fill="rgba(2, 6, 12, 0.92)" fill-opacity="0.92"/></svg>