<svg xmlns="http://www.w3.org/2000/svg" width="19" height="19" viewBox="0 0 24 24"><path d="M17.0251484,0.288798437 C17.5090218,-0.114571204 18.2292627,-0.0967643175 18.6927565,0.350826444 C19.189357,0.830387975 19.2031698,1.62172366 18.7236083,2.11832416 L18.7236083,2.11832416 L11.274,9.831 L18.7236083,17.5450054 C19.2031698,18.0416059 19.189357,18.8329416 18.6927565,19.3125031 C18.2292627,19.7600939 17.5090218,19.7779007 17.0251484,19.3745311 L16.9252588,19.2816513 L9.537,11.631 L2.14917595,19.2816513 L2.04928636,19.3745311 C1.56541292,19.7779007 0.845172034,19.7600939 0.381678232,19.3125031 C-0.114922271,18.8329416 -0.128735086,18.0416059 0.350826444,17.5450054 L0.350826444,17.5450054 L7.799,9.831 L0.350826444,2.11832416 C-0.128735086,1.62172366 -0.114922271,0.830387975 0.381678232,0.350826444 C0.845172034,-0.0967643175 1.56541292,-0.114571204 2.04928636,0.288798437 L2.14917595,0.381678232 L9.537,8.032 L16.9252588,0.381678232 Z" fill="#535766" fill-rule="nonzero" stroke="none" stroke-width="1"/></svg>